<svg width="37" height="31" viewBox="0 0 37 31" fill="none" xmlns="http://www.w3.org/2000/svg">
<path d="M6.35938 0C4.67276 0 3.05523 0.748472 1.86262 2.08076C0.670004 3.41305 0 5.22002 0 7.10417V10.3333H37V7.10417C37 5.22002 36.33 3.41305 35.1374 2.08076C33.9448 0.748472 32.3272 0 30.6406 0H6.35938ZM37 12.9167H0V23.8958C0 25.78 0.670004 27.5869 1.86262 28.9192C3.05523 30.2515 4.67276 31 6.35938 31H30.6406C32.3272 31 33.9448 30.2515 35.1374 28.9192C36.33 27.5869 37 25.78 37 23.8958V12.9167ZM26.5938 23.25H31.2188C31.5254 23.25 31.8195 23.3861 32.0363 23.6283C32.2532 23.8706 32.375 24.1991 32.375 24.5417C32.375 24.8842 32.2532 25.2128 32.0363 25.455C31.8195 25.6972 31.5254 25.8333 31.2188 25.8333H26.5938C26.2871 25.8333 25.993 25.6972 25.7762 25.455C25.5593 25.2128 25.4375 24.8842 25.4375 24.5417C25.4375 24.1991 25.5593 23.8706 25.7762 23.6283C25.993 23.3861 26.2871 23.25 26.5938 23.25Z" fill="black"/>
</svg>
