<svg width="54" height="42" viewBox="0 0 54 42" fill="none" xmlns="http://www.w3.org/2000/svg">
<path d="M38.9221 21C42.1361 21 45.2185 22.0141 47.4912 23.8191C49.7639 25.6241 51.0407 28.0723 51.0407 30.625C51.0407 33.1777 49.7639 35.6259 47.4912 37.4309C45.2185 39.2359 42.1361 40.25 38.9221 40.25C35.708 40.25 32.6256 39.2359 30.3529 37.4309C28.0802 35.6259 26.8034 33.1777 26.8034 30.625C26.8034 28.0723 28.0802 25.6241 30.3529 23.8191C32.6256 22.0141 35.708 21 38.9221 21ZM26.8519 24.5C25.3775 26.328 24.5958 28.4541 24.6 30.625C24.6 33.4775 25.9221 36.085 28.1078 38.0835C26.3539 38.3635 24.4502 38.5035 22.3966 38.5035C14.8588 38.5035 9.29968 36.6258 5.90205 32.8388C5.1708 32.0233 4.77799 31.0469 4.77832 30.0458V28.4358C4.77832 27.3925 5.2998 26.392 6.22817 25.654C7.15654 24.916 8.41584 24.5009 9.72934 24.5H26.8497H26.8519ZM33.0897 30.0073C32.988 29.9237 32.8665 29.857 32.7321 29.8112C32.5977 29.7653 32.4531 29.7412 32.3068 29.7402C32.1605 29.7392 32.0155 29.7613 31.8801 29.8053C31.7447 29.8493 31.6217 29.9143 31.5182 29.9964C31.4148 30.0786 31.333 30.1763 31.2776 30.2838C31.2222 30.3913 31.1943 30.5066 31.1956 30.6227C31.1969 30.7389 31.2272 30.8537 31.285 30.9605C31.3427 31.0672 31.4267 31.1638 31.5319 31.2445L35.9387 34.7445C36.1453 34.9085 36.4254 35.0007 36.7176 35.0007C37.0097 35.0007 37.2899 34.9085 37.4965 34.7445L46.31 27.7445C46.4152 27.6638 46.4992 27.5672 46.5569 27.4605C46.6147 27.3537 46.645 27.2389 46.6463 27.1227C46.6476 27.0065 46.6197 26.8913 46.5643 26.7838C46.5089 26.6763 46.4271 26.5786 46.3237 26.4964C46.2202 26.4143 46.0972 26.3493 45.9618 26.3053C45.8264 26.2613 45.6814 26.2392 45.5351 26.2402C45.3888 26.2412 45.2442 26.2653 45.1098 26.3112C44.9754 26.357 44.8538 26.4237 44.7522 26.5073L36.7187 32.8878L33.0897 30.0073ZM22.3966 3.50876C23.8434 3.50876 25.276 3.73508 26.6126 4.17481C27.9493 4.61454 29.1638 5.25906 30.1868 6.07157C31.2098 6.88409 32.0213 7.84868 32.575 8.91028C33.1286 9.97188 33.4136 11.1097 33.4136 12.2588C33.4136 13.4078 33.1286 14.5456 32.575 15.6072C32.0213 16.6688 31.2098 17.6334 30.1868 18.4459C29.1638 19.2585 27.9493 19.903 26.6126 20.3427C25.276 20.7824 23.8434 21.0088 22.3966 21.0088C19.4747 21.0088 16.6725 20.0869 14.6065 18.4459C12.5404 16.805 11.3797 14.5794 11.3797 12.2588C11.3797 9.93811 12.5404 7.71252 14.6065 6.07157C16.6725 4.43063 19.4747 3.50876 22.3966 3.50876Z" fill="#F5866A"/>
</svg>
