<svg width="78" height="84" viewBox="0 0 78 84" fill="none" xmlns="http://www.w3.org/2000/svg">
<path d="M18.525 16.7547C15.6806 16.7547 12.9527 17.9683 10.9413 20.1285C8.93 22.2887 7.80005 25.2186 7.80005 28.2736V33.5094H70.2V28.2736C70.2 25.2186 69.0701 22.2887 67.0588 20.1285C65.0474 17.9683 62.3195 16.7547 59.475 16.7547H18.525ZM70.2 37.6981H7.80005V55.5C7.80005 58.555 8.93 61.4849 10.9413 63.6451C12.9527 65.8053 15.6806 67.0189 18.525 67.0189H59.475C62.3195 67.0189 65.0474 65.8053 67.0588 63.6451C69.0701 61.4849 70.2 58.555 70.2 55.5V37.6981ZM52.65 54.4528H60.45C60.9672 54.4528 61.4632 54.6735 61.8289 55.0662C62.1946 55.459 62.4 55.9917 62.4 56.5472C62.4 57.1026 62.1946 57.6353 61.8289 58.0281C61.4632 58.4209 60.9672 58.6415 60.45 58.6415H52.65C52.1329 58.6415 51.6369 58.4209 51.2712 58.0281C50.9055 57.6353 50.7 57.1026 50.7 56.5472C50.7 55.9917 50.9055 55.459 51.2712 55.0662C51.6369 54.6735 52.1329 54.4528 52.65 54.4528Z" fill="#ED72DE"/>
</svg>
