<svg width="38" height="38" viewBox="0 0 38 38" fill="none" xmlns="http://www.w3.org/2000/svg">
<path d="M33.5573 4.44285C34.3746 5.26028 34.8338 6.36888 34.8338 7.52481C34.8338 8.68074 34.3746 9.78933 33.5573 10.6068L32.772 11.3921C32.4862 11.3294 32.2043 11.2496 31.9281 11.153C30.7541 10.7423 29.6887 10.0704 28.8121 9.1881C27.9297 8.31152 27.2579 7.24608 26.8472 6.0721C26.7512 5.7958 26.6719 5.51399 26.6097 5.22818L27.3934 4.44285C28.2109 3.62555 29.3194 3.16641 30.4754 3.16641C31.6313 3.16641 32.7399 3.62555 33.5573 4.44285ZM23.0852 21.0789C22.4455 21.7186 22.1257 22.0384 21.7726 22.3139C21.3565 22.6384 20.9063 22.9166 20.4299 23.1436C20.0262 23.3352 19.5971 23.4777 18.7389 23.7643L14.2138 25.2732C14.0065 25.3426 13.784 25.3528 13.5712 25.3027C13.3585 25.2526 13.1639 25.1441 13.0094 24.9895C12.855 24.8348 12.7467 24.6402 12.6968 24.4274C12.6469 24.2145 12.6574 23.992 12.727 23.7848L14.2359 19.2613C14.5209 18.4031 14.6634 17.974 14.8566 17.5703C15.0846 17.0937 15.3633 16.6424 15.6863 16.2276C15.9618 15.8745 16.2816 15.5547 16.9213 14.9134L24.7049 7.13135C25.2403 8.53469 26.0677 9.80834 27.1322 10.868C28.1919 11.9324 29.4655 12.7598 30.8688 13.2953L23.0852 21.0789Z" fill="black"/>
<path d="M32.5138 32.5137C34.8334 30.1973 34.8334 26.4638 34.8334 18.9999C34.8334 16.5489 34.8334 14.5001 34.7511 12.7711L24.6779 22.8443C24.1222 23.4016 23.7042 23.8196 23.2339 24.1853C22.682 24.6164 22.0847 24.9859 21.4527 25.2873C20.9143 25.5438 20.3538 25.7307 19.6065 25.9793L14.9642 27.5262C14.3387 27.7347 13.6676 27.7649 13.0259 27.6135C12.3843 27.462 11.7975 27.1349 11.3313 26.6687C10.8652 26.2025 10.538 25.6157 10.3866 24.9741C10.2351 24.3324 10.2653 23.6613 10.4738 23.0358L12.0207 18.3935C12.2693 17.6462 12.4562 17.0857 12.7127 16.5473C13.0135 15.9156 13.384 15.3187 13.8147 14.7661C14.1804 14.2958 14.5984 13.8794 15.1557 13.3221L25.2289 3.24893C23.4999 3.1666 21.4511 3.1666 19.0001 3.1666C11.5362 3.1666 7.80433 3.1666 5.48475 5.4846C3.16675 7.80576 3.16675 11.5361 3.16675 18.9999C3.16675 26.4638 3.16675 30.1957 5.48475 32.5137C7.80591 34.8333 11.5362 34.8333 19.0001 34.8333C26.4639 34.8333 30.1958 34.8333 32.5138 32.5137Z" fill="black"/>
</svg>
