<svg width="39" height="30" viewBox="0 0 39 30" fill="none" xmlns="http://www.w3.org/2000/svg">
<path d="M6.1579 30V24H0V20H6.1579V14H10.2632V20H16.4211V24H10.2632V30H6.1579ZM20.5263 28V16H14.3684V10H2.05263V4C2.05263 2.9 2.45495 1.958 3.25958 1.174C4.06421 0.390003 5.03032 -0.00132994 6.1579 3.39559e-06H26.6842C27.3684 3.39559e-06 28.0102 0.150003 28.6096 0.450003C29.2089 0.750003 29.6961 1.16667 30.0711 1.7L39 14L30.0711 26.3C29.6947 26.8333 29.2069 27.25 28.6075 27.55C28.0082 27.85 27.3671 28 26.6842 28H20.5263Z" fill="black"/>
</svg>
