<svg width="128" height="116" viewBox="0 0 128 116" fill="none" xmlns="http://www.w3.org/2000/svg">
<g clip-path="url(#clip0_218_1928)">
<path d="M132.273 97.7778H145V109H5V97.7778H17.7273V13.6111C17.7273 12.123 18.3977 10.6957 19.5911 9.64346C20.7846 8.59117 22.4032 8 24.0909 8H87.7273C89.415 8 91.0336 8.59117 92.227 9.64346C93.4205 10.6957 94.0909 12.123 94.0909 13.6111V97.7778H106.818V41.6667H125.909C127.597 41.6667 129.215 42.2578 130.409 43.3101C131.602 44.3624 132.273 45.7896 132.273 47.2778V97.7778ZM43.1818 52.8889V64.1111H68.6364V52.8889H43.1818ZM43.1818 30.4444V41.6667H68.6364V30.4444H43.1818Z" fill="#1E0050"/>
</g>
<defs>
<clipPath id="clip0_218_1928">
<rect width="128" height="116" fill="white"/>
</clipPath>
</defs>
</svg>
