<svg width="67" height="69" viewBox="0 0 67 69" fill="none" xmlns="http://www.w3.org/2000/svg">
<path d="M42.3446 53.3893C42.8921 53.3893 43.3712 53.1772 43.7819 52.7529C44.1926 52.3286 44.3979 51.8336 44.3979 51.2679C44.3979 50.7022 44.1926 50.2072 43.7819 49.783C43.3712 49.3587 42.8921 49.1465 42.3446 49.1465C41.7971 49.1465 41.3179 49.3587 40.9073 49.783C40.4966 50.2072 40.2913 50.7022 40.2913 51.2679C40.2913 51.8336 40.4966 52.3286 40.9073 52.7529C41.3179 53.1772 41.7971 53.3893 42.3446 53.3893ZM49.8734 53.3893C50.4209 53.3893 50.9 53.1772 51.3107 52.7529C51.7213 52.3286 51.9267 51.8336 51.9267 51.2679C51.9267 50.7022 51.7213 50.2072 51.3107 49.783C50.9 49.3587 50.4209 49.1465 49.8734 49.1465C49.3258 49.1465 48.8467 49.3587 48.4361 49.783C48.0254 50.2072 47.8201 50.7022 47.8201 51.2679C47.8201 51.8336 48.0254 52.3286 48.4361 52.7529C48.8467 53.1772 49.3258 53.3893 49.8734 53.3893ZM57.4021 53.3893C57.9497 53.3893 58.4288 53.1772 58.8394 52.7529C59.2501 52.3286 59.4554 51.8336 59.4554 51.2679C59.4554 50.7022 59.2501 50.2072 58.8394 49.783C58.4288 49.3587 57.9497 49.1465 57.4021 49.1465C56.8546 49.1465 56.3755 49.3587 55.9648 49.783C55.5542 50.2072 55.3488 50.7022 55.3488 51.2679C55.3488 51.8336 55.5542 52.3286 55.9648 52.7529C56.3755 53.1772 56.8546 53.3893 57.4021 53.3893ZM49.8734 65.4104C46.0862 65.4104 42.8575 64.031 40.1873 61.2723C37.5171 58.5136 36.1829 55.1788 36.1847 51.2679C36.1847 47.3552 37.5198 44.0194 40.19 41.2607C42.8602 38.502 46.088 37.1235 49.8734 37.1254C53.6606 37.1254 56.8893 38.5048 59.5595 41.2635C62.2297 44.0222 63.5638 47.357 63.562 51.2679C63.562 55.1807 62.2269 58.5164 59.5567 61.2751C56.8865 64.0339 53.6587 65.4123 49.8734 65.4104ZM19.7583 25.8114H47.1356V20.1544H19.7583V25.8114ZM32.5572 59.7534H14.2828C12.7771 59.7534 11.4876 59.199 10.4144 58.0903C9.34124 56.9815 8.80555 55.6502 8.80738 54.0964V14.4974C8.80738 12.9418 9.34397 11.6095 10.4172 10.5008C11.4904 9.392 12.7789 8.83856 14.2828 8.84044H52.6111C54.1168 8.84044 55.4063 9.39483 56.4795 10.5036C57.5527 11.6124 58.0884 12.9437 58.0866 14.4974V33.4484C56.7633 32.7884 55.4282 32.2934 54.0813 31.9634C52.7343 31.6334 51.3317 31.4684 49.8734 31.4684C49.3714 31.4684 48.9033 31.4797 48.4689 31.5024C48.0345 31.525 47.5901 31.5844 47.1356 31.6806V31.4684H19.7583V37.1254H36.5269C35.7056 37.9268 34.9637 38.799 34.3011 39.7418C33.6386 40.6846 33.0573 41.6982 32.5572 42.7824H19.7583V48.4394H30.9146C30.8233 48.9108 30.7658 49.3709 30.7421 49.8197C30.7184 50.2685 30.7074 50.7512 30.7092 51.2679C30.7092 52.8236 30.8461 54.2737 31.1199 55.6181C31.3937 56.9626 31.8728 58.341 32.5572 59.7534Z" fill="#20AEF3"/>
</svg>
