<svg width="59" height="60" viewBox="0 0 59 60" fill="none" xmlns="http://www.w3.org/2000/svg">
<g clip-path="url(#clip0_218_1647)">
<path fill-rule="evenodd" clip-rule="evenodd" d="M43.4284 -1.972C45.5957 -1.972 47.6742 -1.08249 49.2068 0.500844C50.7393 2.08418 51.6002 4.23164 51.6002 6.47082V51.4992C51.5999 52.0292 51.4547 52.5484 51.1813 52.997C50.908 53.4455 50.5176 53.8052 50.055 54.0345C49.5925 54.2639 49.0767 54.3537 48.5669 54.2935C48.0572 54.2333 47.5743 54.0256 47.1738 53.6943L42.0664 49.4729L36.9589 53.6943C36.4357 54.1274 35.7762 54.3459 35.1068 54.308C34.4373 54.2701 33.8049 53.9784 33.3306 53.4889L29.8085 49.85L26.2865 53.4889C25.8125 53.9788 25.1803 54.271 24.5108 54.3094C23.8414 54.3478 23.1817 54.1298 22.6581 53.6971L17.5507 49.4729L12.4433 53.6943C12.0428 54.0256 11.5599 54.2333 11.0501 54.2935C10.5404 54.3537 10.0246 54.2639 9.56206 54.0345C9.09954 53.8052 8.70911 53.4455 8.43574 52.997C8.16237 52.5484 8.01717 52.0292 8.01685 51.4992V6.47082C8.01685 4.23164 8.87781 2.08418 10.4103 0.500844C11.9429 -1.08249 14.0214 -1.972 16.1887 -1.972H43.4284ZM29.8085 26.1707H21.6367C20.9142 26.1707 20.2214 26.4672 19.7105 26.995C19.1997 27.5228 18.9127 28.2386 18.9127 28.985C18.9127 29.7314 19.1997 30.4472 19.7105 30.975C20.2214 31.5028 20.9142 31.7993 21.6367 31.7993H29.8085C30.531 31.7993 31.2238 31.5028 31.7347 30.975C32.2455 30.4472 32.5325 29.7314 32.5325 28.985C32.5325 28.2386 32.2455 27.5228 31.7347 26.995C31.2238 26.4672 30.531 26.1707 29.8085 26.1707ZM37.9804 14.9136H21.6367C20.9424 14.9144 20.2746 15.1891 19.7697 15.6815C19.2649 16.1739 18.9611 16.8469 18.9204 17.563C18.8797 18.279 19.1052 18.9841 19.5508 19.5342C19.9964 20.0843 20.6285 20.4378 21.318 20.5225L21.6367 20.5422H37.9804C38.6747 20.5414 39.3425 20.2667 39.8473 19.7743C40.3522 19.2819 40.656 18.6089 40.6967 17.8928C40.7374 17.1768 40.5119 16.4717 40.0663 15.9216C39.6207 15.3716 38.9886 15.0181 38.2991 14.9333L37.9804 14.9136Z" fill="#FEB95A"/>
</g>
<defs>
<clipPath id="clip0_218_1647">
<rect width="57.6187" height="59.529" fill="white" transform="translate(0.445312 0.412964)"/>
</clipPath>
</defs>
</svg>
