<svg width="68" height="70" viewBox="0 0 68 70" fill="none" xmlns="http://www.w3.org/2000/svg">
<path d="M17.3773 32.1689C16.8275 32.1689 16.29 32.3374 15.8329 32.6529C15.3757 32.9685 15.0194 33.4171 14.809 33.9419C14.5986 34.4667 14.5436 35.0441 14.6508 35.6012C14.7581 36.1584 15.0229 36.6701 15.4116 37.0718C15.8004 37.4734 16.2957 37.747 16.835 37.8578C17.3742 37.9686 17.9331 37.9117 18.4411 37.6943C18.949 37.477 19.3832 37.1088 19.6886 36.6365C19.9941 36.1642 20.1571 35.609 20.1571 35.0409C20.1571 34.2792 19.8643 33.5487 19.3429 33.0101C18.8216 32.4715 18.1145 32.1689 17.3773 32.1689ZM33.6672 27.7173L13.7913 7.15369C13.5321 6.8859 13.2244 6.67349 12.8857 6.52856C12.5471 6.38364 12.1841 6.30905 11.8176 6.30905C11.451 6.30905 11.0881 6.38364 10.7494 6.52856C10.4108 6.67349 10.1031 6.8859 9.84389 7.15369C9.32043 7.6945 9.02635 8.42799 9.02635 9.19282C9.02635 9.95764 9.32043 10.6911 9.84389 11.2319L13.4577 14.9368H11.8176C9.60579 14.9368 7.48459 15.8446 5.92063 17.4604C4.35666 19.0762 3.47803 21.2678 3.47803 23.5529V46.529C3.47803 48.8141 4.35666 51.0056 5.92063 52.6215C7.48459 54.2373 9.60579 55.145 11.8176 55.145H52.3756L59.8812 62.9282C60.1396 63.1974 60.4471 63.411 60.7858 63.5569C61.1246 63.7027 61.4879 63.7777 61.8549 63.7777C62.2219 63.7777 62.5852 63.7027 62.924 63.5569C63.2627 63.411 63.5702 63.1974 63.8286 62.9282C64.0891 62.6612 64.2959 62.3436 64.4371 61.9936C64.5782 61.6436 64.6509 61.2682 64.6509 60.8891C64.6509 60.5099 64.5782 60.1345 64.4371 59.7846C64.2959 59.4346 64.0891 59.1169 63.8286 58.8499L33.6672 27.7173ZM31.6101 33.7198L35.3351 37.5683C34.9419 37.7877 34.5032 37.9059 34.0564 37.913C33.3191 37.913 32.6121 37.6104 32.0907 37.0718C31.5694 36.5332 31.2765 35.8026 31.2765 35.0409C31.2833 34.5793 31.3977 34.1261 31.6101 33.7198ZM11.8176 49.401C11.0803 49.401 10.3733 49.0984 9.85193 48.5598C9.33061 48.0212 9.03773 47.2907 9.03773 46.529V23.5529C9.03773 22.7912 9.33061 22.0607 9.85193 21.5221C10.3733 20.9835 11.0803 20.6809 11.8176 20.6809H19.0174L27.6349 29.5841C26.4038 31.119 25.7259 33.0475 25.7168 35.0409C25.7168 37.3261 26.5955 39.5176 28.1594 41.1334C29.7234 42.7492 31.8446 43.657 34.0564 43.657C35.9858 43.6476 37.8524 42.9472 39.3381 41.6753L46.8159 49.401H11.8176ZM56.2952 14.9368H35.8911C35.1538 14.9368 34.4468 15.2394 33.9254 15.778C33.4041 16.3166 33.1112 17.0472 33.1112 17.8089C33.1112 18.5706 33.4041 19.3011 33.9254 19.8397C34.4468 20.3783 35.1538 20.6809 35.8911 20.6809H56.2952C57.0325 20.6809 57.7395 20.9835 58.2608 21.5221C58.7822 22.0607 59.075 22.7912 59.075 23.5529V44.6335C59.075 45.3952 59.3679 46.1257 59.8892 46.6643C60.4106 47.2029 61.1176 47.5055 61.8549 47.5055C62.5922 47.5055 63.2992 47.2029 63.8205 46.6643C64.3419 46.1257 64.6347 45.3952 64.6347 44.6335V23.5529C64.6347 21.2678 63.7561 19.0762 62.1921 17.4604C60.6282 15.8446 58.507 14.9368 56.2952 14.9368ZM53.5153 35.0409C53.5153 34.4729 53.3523 33.9176 53.0469 33.4453C52.7414 32.973 52.3072 32.6049 51.7993 32.3875C51.2913 32.1702 50.7324 32.1133 50.1932 32.2241C49.6539 32.3349 49.1586 32.6085 48.7698 33.0101C48.3811 33.4118 48.1163 33.9235 48.0091 34.4806C47.9018 35.0378 47.9568 35.6152 48.1672 36.14C48.3776 36.6648 48.7339 37.1133 49.1911 37.4289C49.6482 37.7445 50.1857 37.913 50.7355 37.913C51.4728 37.913 52.1798 37.6104 52.7011 37.0718C53.2225 36.5332 53.5153 35.8026 53.5153 35.0409Z" fill="#F85F5F"/>
</svg>
