<svg width="30" height="38" viewBox="0 0 30 38" fill="none" xmlns="http://www.w3.org/2000/svg">
<path d="M15.5156 32.3C15.8906 32.2683 16.2113 32.1176 16.4775 31.8478C16.7437 31.578 16.8762 31.2537 16.875 30.875C16.875 30.4317 16.7344 30.0751 16.4531 29.8053C16.1719 29.5355 15.8125 29.4171 15.375 29.45C14.0938 29.545 12.7344 29.1884 11.2969 28.3803C9.85938 27.5722 8.95313 26.1079 8.57813 23.9875C8.51563 23.6392 8.35188 23.3542 8.08687 23.1325C7.82188 22.9108 7.51688 22.8 7.17188 22.8C6.73438 22.8 6.375 22.9666 6.09375 23.2997C5.8125 23.6328 5.71875 24.0204 5.8125 24.4625C6.34375 27.3442 7.59375 29.4025 9.5625 30.6375C11.5313 31.8725 13.5156 32.4267 15.5156 32.3ZM15 38C10.7188 38 7.14813 36.5117 4.28813 33.535C1.42813 30.5583 -0.00124918 26.8533 8.19135e-07 22.42C8.19135e-07 19.2533 1.2425 15.8093 3.7275 12.0878C6.2125 8.36633 9.97 4.33707 15 0C20.0312 4.33833 23.7894 8.36823 26.2744 12.0897C28.7594 15.8112 30.0012 19.2546 30 22.42C30 26.8533 28.57 30.5583 25.71 33.535C22.85 36.5117 19.28 38 15 38Z" fill="black"/>
</svg>
