<svg width="164" height="150" viewBox="0 0 164 254" fill="none" xmlns="http://www.w3.org/2000/svg">
<path fill-rule="evenodd" clip-rule="evenodd" d="M67.4113 0.141579H147.244C156.176 0.141579 163.573 6.51263 163.573 14.2995V47.2874V192.123V232.897C163.573 244.224 152.966 253.568 139.847 253.568H99.9306V227.234C99.9306 222.845 95.8831 219.306 90.8587 219.306H72.7148C67.6904 219.306 63.6429 222.845 63.6429 227.234V253.568H23.7265C10.7467 253.568 0 244.224 0 232.897V47.2874C0 35.9611 10.6072 26.6168 23.7265 26.6168H51.2214V14.1579C51.2214 6.37105 58.6185 0 67.5508 0L67.4113 0.141579ZM22.8891 36.5274H31.961C34.4733 36.5274 36.4272 38.3679 36.4272 40.4916V187.309C36.4272 189.433 34.3337 191.273 31.961 191.273H22.8891C20.3769 191.273 18.423 189.433 18.423 187.309V40.4916C18.423 38.3679 20.5165 36.5274 22.8891 36.5274ZM73.1335 160.834H91.8356C96.5809 160.834 100.628 164.232 100.628 168.479V183.628C100.628 187.875 96.7205 191.273 91.8356 191.273H73.1335C68.3882 191.273 64.3408 187.875 64.3408 183.628V168.479C64.3408 164.232 68.2487 160.834 73.1335 160.834ZM122.82 160.834H141.522C146.267 160.834 150.315 164.232 150.315 168.479V183.628C150.315 187.875 146.407 191.273 141.522 191.273H122.82C118.074 191.273 114.027 187.875 114.027 183.628V168.479C114.027 164.232 117.935 160.834 122.82 160.834ZM73.1335 112.555H91.8356C96.5809 112.555 100.628 115.953 100.628 120.201V135.349C100.628 139.597 96.7205 142.995 91.8356 142.995H73.1335C68.3882 142.995 64.3408 139.597 64.3408 135.349V120.201C64.3408 115.953 68.2487 112.555 73.1335 112.555ZM122.82 112.555H141.522C146.267 112.555 150.315 115.953 150.315 120.201V135.349C150.315 139.597 146.407 142.995 141.522 142.995H122.82C118.074 142.995 114.027 139.597 114.027 135.349V120.201C114.027 115.953 117.935 112.555 122.82 112.555ZM73.1335 15.9984H91.8356C96.5809 15.9984 100.628 19.3963 100.628 23.6437V38.7926C100.628 43.04 96.7205 46.4379 91.8356 46.4379H73.1335C68.3882 46.4379 64.3408 43.04 64.3408 38.7926V23.6437C64.3408 19.3963 68.2487 15.9984 73.1335 15.9984ZM122.82 15.9984H141.522C146.267 15.9984 150.315 19.3963 150.315 23.6437V38.7926C150.315 43.04 146.407 46.4379 141.522 46.4379H122.82C118.074 46.4379 114.027 43.04 114.027 38.7926V23.6437C114.027 19.3963 117.935 15.9984 122.82 15.9984ZM73.1335 64.2768H91.8356C96.5809 64.2768 100.628 67.6747 100.628 71.9221V87.0711C100.628 91.3184 96.7205 94.7163 91.8356 94.7163H73.1335C68.3882 94.7163 64.3408 91.3184 64.3408 87.0711V71.9221C64.3408 67.6747 68.2487 64.2768 73.1335 64.2768ZM122.82 64.2768H141.522C146.267 64.2768 150.315 67.6747 150.315 71.9221V87.0711C150.315 91.3184 146.407 94.7163 141.522 94.7163H122.82C118.074 94.7163 114.027 91.3184 114.027 87.0711V71.9221C114.027 67.6747 117.935 64.2768 122.82 64.2768Z" fill="white"/>
</svg>
