<svg width="55" height="70" viewBox="0 0 55 70" fill="none" xmlns="http://www.w3.org/2000/svg">
<path d="M34.1131 25.8029H47.0146M14.927 2.1204H36.2336L52.9416 20.8467V54.9525C52.9416 62.0291 47.1423 67.854 40.0401 67.854H14.9015C7.79927 67.854 2 62.0547 2 54.9525V14.9963C2 7.89412 7.79927 2.09485 14.9015 2.09485L14.927 2.1204ZM9.94525 52.6532H47.3212H9.94525ZM9.94525 45.3722H47.3212H9.94525ZM9.94525 37.7335H47.3212H9.94525Z" stroke="white" stroke-width="4" stroke-linecap="round" stroke-linejoin="round"/>
<path d="M12.7506 28.7919V24.1423H14.2835L17.7068 28.7919H20.3382L16.455 23.7335C17.4769 23.3759 18.8565 22.3284 18.8565 20.1824C18.8565 18.0364 17.7324 16.3503 14.3601 16.3503C14.0025 16.3503 11.2689 16.3759 10.5791 16.3759V28.7664H12.7506V28.7919ZM14.2324 18.3941C15.9952 18.3941 16.5317 19.2372 16.5317 20.208C16.5317 21.4853 15.4076 22.124 14.1557 22.124H12.7506V18.4452C13.3382 18.4197 13.8236 18.4197 14.2324 18.4197V18.3941Z" fill="white"/>
<path d="M21.6533 32.343H23.6971V28.6131C24.157 28.8686 24.8468 28.9963 25.5621 28.9963C28.1168 28.9963 29.7774 27.1313 29.7774 24.7043C29.7774 22.354 28.3723 20.6423 26.1752 20.6423C25.1533 20.6423 24.2081 21.0766 23.7227 21.5875V20.8211H21.6789V32.3175L21.6533 32.343ZM25.511 22.5583C26.865 22.5583 27.6059 23.478 27.6059 24.7554C27.6059 26.0839 26.7884 27.1058 25.3832 27.1058C24.719 27.1058 24.2592 27.0036 23.6971 26.6459V23.4269C24.1825 22.8904 24.8212 22.5583 25.511 22.5583Z" fill="white"/>
</svg>
