<svg width="74" height="74" viewBox="0 0 74 74" fill="none" xmlns="http://www.w3.org/2000/svg">
<path d="M13.6752 36.7832H2.13184V66.3424H13.6752V36.7832Z" stroke="#81D07A" stroke-width="4" stroke-linecap="round" stroke-linejoin="round"/>
<path fill-rule="evenodd" clip-rule="evenodd" d="M13.6582 58.7995C13.6582 46.3897 13.6582 40.1721 13.6582 40.1721C25.4819 40.0957 33.0246 41.7265 36.2863 45.0902C47.6768 45.0902 53.3848 45.0902 53.3848 45.0902C55.2195 46.0585 56.2388 47.5364 56.4681 49.5495C63.2209 44.7079 68.3428 44.2493 71.8593 48.1735C70.5852 51.69 65.922 55.8946 57.8441 60.7871C41.2043 71.3622 26.4757 70.6997 13.6582 58.774V58.7995Z" stroke="#81D07A" stroke-width="4" stroke-linecap="round" stroke-linejoin="round"/>
<path d="M56.4718 49.5505C55.5799 51.7929 52.7514 52.9141 48.0118 52.9396C41.3354 52.9396 35.0668 52.9396 29.2314 52.9396" stroke="#81D07A" stroke-width="4" stroke-linecap="round" stroke-linejoin="round"/>
<path d="M43.7931 37.9046C52.6734 37.9046 59.8723 30.7057 59.8723 21.8254C59.8723 12.9452 52.6734 5.74625 43.7931 5.74625C34.9128 5.74625 27.7139 12.9452 27.7139 21.8254C27.7139 30.7057 34.9128 37.9046 43.7931 37.9046Z" stroke="#81D07A" stroke-width="4"/>
<path d="M44.1957 26.1315L41.0614 21.5957C42.3865 21.1115 42.9726 20.0413 42.9726 18.5379V16.8815C42.9726 14.6646 41.8768 13.4414 38.9464 13.4414H33.748V26.1315H36.1434V21.9525H38.4368L41.3417 26.1315H44.2212H44.1957ZM40.5518 17.0599V18.3085C40.5518 19.3788 40.1441 19.8629 38.819 19.8629H36.1179V15.5565H38.819C40.0931 15.5565 40.5518 15.9896 40.5518 17.0599Z" fill="#81D07A"/>
<path d="M53.871 19.8883C53.871 17.7733 52.8772 16.6776 51.017 16.6776C49.8449 16.6776 48.902 17.0598 48.0866 17.6459L47.8573 16.856H45.9971V30.2086L48.3159 29.8773V26.055C49.0294 26.2079 49.9723 26.3098 50.7877 26.3098C52.9282 26.3098 53.8456 25.0867 53.8456 23.0226V19.8628L53.871 19.8883ZM48.3159 19.4806C48.8001 19.0219 49.641 18.6397 50.38 18.6397C51.2464 18.6397 51.5267 19.0474 51.5267 19.8119V23.0991C51.5267 23.94 51.1954 24.3477 50.3545 24.3477C49.692 24.3477 48.902 24.2458 48.2905 24.0929V19.4806H48.3159Z" fill="#81D07A"/>
</svg>
