<svg width="123" height="123" viewBox="0 0 123 123" fill="none" xmlns="http://www.w3.org/2000/svg">
<g clip-path="url(#clip0)">
<path fill-rule="evenodd" clip-rule="evenodd" d="M8.41725 70.389L46.3677 92.2556C51.631 95.1019 57.9787 99.1455 63.2646 102.014L71.7809 106.939C72.3456 107.278 75.7792 109.288 76.1633 109.288C76.7054 109.288 84.6117 104.522 85.8542 103.844C89.9655 101.563 113.617 87.4667 114.611 87.1956V94.1532L102.774 101.043C101.87 101.54 101.283 101.992 100.357 102.466L76.1858 116.472L55.2002 104.296C44.2894 98.3322 32.1588 90.6292 21.2481 84.6656C17.2046 82.4518 12.5511 79.47 8.43984 77.3014V70.3438L8.41725 70.389ZM8.41725 56.6997C13.4547 59.3653 23.1908 65.1482 28.2283 68.13L48.1748 79.6507C56.3748 84.5074 66.766 90.1096 74.6723 94.9664C76.3891 96.0055 76.1407 96.0281 77.9252 94.9438C79.0773 94.2435 80.1616 93.6336 81.2459 92.9785L94.4608 85.2981C96.6745 83.9653 98.9109 82.7229 101.17 81.4353C102.548 80.6446 113.391 74.0485 114.633 73.7548V80.4865L78.6029 101.382C77.7897 101.811 76.9539 102.331 76.2084 102.828L50.9307 88.2121C49.4624 87.3311 48.1071 86.5857 46.6613 85.7499L38.2806 80.9157C30.1936 76.0138 20.8189 70.9989 12.7318 66.1196C11.3539 65.2837 9.84039 64.4028 8.46243 63.6799V56.7223L8.41725 56.6997ZM8.41725 43.0105C9.09493 43.4623 9.65967 43.7107 10.3825 44.1625L50.5919 67.3846C52.1054 68.2656 53.3026 68.9884 54.8613 69.8468C56.3522 70.6826 57.6624 71.541 59.1082 72.3317C64.2812 75.1328 71.2839 79.5829 76.1633 82.1807L90.4398 73.8678C91.3434 73.3256 91.9759 72.9868 92.9021 72.4898L114.611 59.8397V66.5714C109.618 69.2143 100.718 74.8391 95.4095 77.8661C93.8509 78.7471 92.3599 79.6959 90.7561 80.6672C89.0619 81.6837 87.6161 82.497 85.9219 83.5135L76.1858 89.1383L25.4272 59.9074C23.1908 58.665 9.79521 50.5328 8.43984 50.2165V43.0105H8.41725ZM8.41725 29.5471L66.5627 63.1603C67.9632 63.9736 69.2734 64.6738 70.674 65.5322C76.1407 68.8303 75.9148 68.243 80.9748 65.3515C82.6464 64.4028 84.1599 63.5443 85.8542 62.5278L114.611 45.8793V53.3339C113.797 53.5146 112.081 54.5763 111.29 55.0507C103.835 59.5686 95.4547 64.0865 88.0453 68.5592C85.809 69.9146 83.7082 70.9989 81.4944 72.3317L76.4795 75.2457C75.8696 75.4264 75.3048 75.0198 74.7401 74.681L8.41725 36.4821V29.5245V29.5471ZM20.9093 21.1438L39.8845 10.3234C39.8845 10.3234 47.4068 15.2479 54.771 10.3234C56.3071 10.6848 94.9126 33.4099 98.9109 35.6237C99.7241 36.0755 101.441 36.8887 101.87 37.476C96.8779 38.6281 96.0872 44.9532 102.119 46.3537L101.125 47.0314C96.3809 49.9455 86.961 54.9377 82.9175 57.6485C79.1451 55.6606 79.1225 55.254 74.0398 55.254C71.4872 55.254 69.3412 56.135 67.7825 57.1741L22.5131 31.0832C21.9484 30.7444 21.5192 30.4055 20.9318 30.27C21.2707 29.8182 21.4514 29.7504 21.9936 29.4116L22.8294 28.8242C22.8745 28.8017 22.9197 28.7339 22.9423 28.7113C23.6878 27.9884 24.388 27.13 24.4558 25.9102C24.5914 23.8771 22.5583 22.0248 20.9093 21.6408V21.1664V21.1438ZM2.88281 26.1813V80.238C2.88281 80.9835 4.23818 81.503 4.87069 81.8419L57.6398 112.428C59.1985 113.264 60.6668 114.235 62.2029 115.071C64.3489 116.223 75.5533 123 76.1407 123C76.6828 123 90.3947 114.936 92.6762 113.58L120.1 97.7675V44.908C120.1 42.7168 120.529 41.5196 119.106 40.616C114.995 37.973 107.043 33.8165 102.186 30.8799C99.9048 29.5019 97.7814 28.3499 95.4999 26.9945C94.2801 26.2716 93.3313 25.7972 92.134 25.0744L88.7908 23.1317C86.4189 21.8441 84.4084 20.5791 82.0817 19.2689L75.2371 15.3157C74.6272 14.9543 74.1528 14.7284 73.5429 14.3669C72.9555 14.0055 72.5037 13.7118 71.8938 13.373C69.8382 12.2209 49.1688 0 48.0393 0C44.7412 0 44.7412 0.880992 40.9236 2.95923C33.966 6.75427 25.7886 12.0176 18.8988 15.7675L7.78474 22.2055C5.45802 23.6061 2.88281 24.4645 2.88281 26.1813ZM41.8046 32.9129C41.8046 37.0242 43.047 38.9895 46.4128 41.2711C59.7407 50.3747 85.7638 43.1686 80.7489 30.9477C80.3875 30.0441 79.8679 29.276 79.2128 28.6435C74.2206 23.6512 68.2343 22.341 60.5313 22.341C54.5451 22.341 48.1748 24.2612 44.3798 28.0562C43.2955 29.1405 41.8046 30.9025 41.8046 32.9129ZM77.609 45.8793C78.1285 46.4441 78.3996 46.5344 79.1451 46.9862C79.8228 47.3928 80.139 47.5961 80.8167 47.9576C81.4718 48.319 83.7533 49.7196 84.3407 49.7196C85.9445 49.7196 87.4806 47.935 88.9037 47.551C88.8812 46.1278 88.7908 46.6474 86.577 45.3146C82.0139 42.5587 82.4883 42.4909 78.8288 44.6821C78.0382 45.1565 78.0608 45.0661 77.6316 45.8793H77.609ZM34.1241 20.6468C34.5533 21.3019 39.6812 24.4871 41.0817 24.4871C42.0756 24.4871 45.0801 22.5218 45.3963 22.0926C45.0575 20.8501 41.8949 19.5399 40.7203 18.8397C38.4839 17.4843 37.9644 17.9361 36.0894 19.0656C34.2823 20.1499 34.6437 19.6529 34.1015 20.6694L34.1241 20.6468ZM50.863 32.5063C51.5407 32.0997 52.2409 31.6931 52.9186 31.2865C53.5963 30.8799 54.2966 30.4733 54.9969 30.0667C55.5164 30.3603 56.036 30.6766 56.5781 30.9702C56.4652 31.7157 56.3748 32.4612 56.2619 33.2066C56.1489 33.9521 56.0586 34.6975 55.9456 35.4204C56.8492 35.9399 57.7528 36.4595 58.6564 36.9791C58.7467 36.1658 58.8371 35.33 58.9274 34.5168C59.0178 33.7036 59.1082 32.8678 59.1985 32.0545C60.5765 32.4837 62.9258 32.7322 64.8459 31.6253C66.766 30.4959 67.1274 28.9598 63.6261 26.9267C63.2646 26.7234 60.4183 25.1196 59.6955 24.6904C57.8431 25.7747 55.9908 26.8815 54.1385 27.9658C52.2861 29.0501 50.4564 30.1344 48.6266 31.2187C49.3721 31.6479 50.1175 32.0771 50.863 32.5063ZM61.6834 27.9432C63.5131 29.005 63.3098 29.7504 62.4288 30.27C61.2767 30.9477 59.5599 30.6088 58.2723 29.8634C57.7754 29.5923 57.301 29.2986 56.804 29.0275C57.9109 28.3724 58.9952 27.7399 60.1021 27.0848C60.7346 27.4237 61.2542 27.7174 61.6834 27.9432ZM56.8492 39.5994C57.5495 40.0061 58.2498 40.3901 58.95 40.7967C60.0569 40.1642 61.1638 39.5091 62.2707 38.854C62.4966 39.2606 63.1065 39.735 63.8294 40.1642C65.1396 40.9096 66.6305 41.2937 68.0762 41.3388C69.5219 41.384 70.9225 41.0678 72.0068 40.4353C73.0685 39.8253 73.6106 39.0799 73.6106 38.3344C73.6106 37.589 73.0685 36.8209 71.939 36.1884C70.8773 35.5785 69.5219 35.2397 68.5506 35.2171C68.7765 35.0815 69.0024 34.946 69.2283 34.8105C68.528 34.4039 67.8277 33.9972 67.1274 33.6132C65.4106 34.6072 63.6938 35.6237 61.977 36.6176C60.2602 37.6116 58.5434 38.6055 56.8492 39.5994ZM69.5671 36.7983C70.9451 37.589 70.8999 38.5151 69.7478 39.1702C68.5506 39.8705 66.8112 39.9157 65.3429 39.0799C64.6426 38.6733 64.2812 38.357 64.0327 37.8375C65.004 37.2727 65.9528 36.7306 66.9241 36.1658C67.9181 36.1658 68.8668 36.3917 69.5671 36.7983Z" fill="white"/>
</g>
<defs>
<clipPath id="clip0">
<rect width="123" height="123" fill="white"/>
</clipPath>
</defs>
</svg>
