<svg width="112" height="112" viewBox="0 0 112 112" fill="none" xmlns="http://www.w3.org/2000/svg">
<g clip-path="url(#clip0)">
<path d="M60.4588 74.5756L25.5938 58.273V93.138L60.4588 109.441V74.5756Z" stroke="#E7B201" stroke-width="5" stroke-linecap="round" stroke-linejoin="round"/>
<path fill-rule="evenodd" clip-rule="evenodd" d="M86.4396 55.5369L60.4297 74.5738V109.439L86.4396 90.4019V55.5369Z" stroke="#E7B201" stroke-width="5" stroke-linecap="round" stroke-linejoin="round"/>
<path fill-rule="evenodd" clip-rule="evenodd" d="M74.0092 64.4841L62.223 73.6786L26.0312 56.8632L37.8175 47.6687L74.0092 64.4841Z" stroke="#E7B201" stroke-width="5" stroke-linecap="round" stroke-linejoin="round"/>
<path fill-rule="evenodd" clip-rule="evenodd" d="M49.5753 38.5051L85.7979 55.3206L73.9808 64.4842L37.7891 47.6688L49.5753 38.5051Z" stroke="#E7B201" stroke-width="5" stroke-linecap="round" stroke-linejoin="round"/>
<path d="M53.627 97.8492L51.625 96.9131V98.9151L53.627 99.8512V97.8492Z" stroke="#E7B201" stroke-width="5" stroke-linecap="round" stroke-linejoin="round"/>
<path d="M65.0234 9.19367L67.9237 5.8923L70.7623 2.56007L73.6008 5.8923L76.5011 9.19367M70.7623 37.2708V2.56007V37.2708Z" stroke="#E7B201" stroke-width="5" stroke-linecap="round" stroke-linejoin="round"/>
</g>
<defs>
<clipPath id="clip0">
<rect width="112" height="112" fill="white"/>
</clipPath>
</defs>
</svg>
