<svg width="84" height="84" viewBox="0 0 84 84" fill="none" xmlns="http://www.w3.org/2000/svg">
<path d="M37.4554 42.6146L2.58398 26.309V61.1804L37.4554 77.486V42.6146Z" stroke="#81D07A" stroke-width="5" stroke-linecap="round" stroke-linejoin="round"/>
<path d="M63.462 40.4411V23.5917L37.4473 42.6012V77.4727L48.9271 69.0788" stroke="#81D07A" stroke-width="5" stroke-linecap="round" stroke-linejoin="round"/>
<path fill-rule="evenodd" clip-rule="evenodd" d="M50.9809 32.5403L39.1925 41.7056L2.99414 24.8871L14.7825 15.7218L50.9809 32.5403Z" stroke="#81D07A" stroke-width="5" stroke-linecap="round" stroke-linejoin="round"/>
<path fill-rule="evenodd" clip-rule="evenodd" d="M26.595 6.52661L62.8243 23.3451L51.005 32.5413L14.8066 15.7228L26.595 6.52661Z" stroke="#81D07A" stroke-width="5" stroke-linecap="round" stroke-linejoin="round"/>
<path d="M30.6313 65.8948L28.6289 64.9585V66.9608L30.6313 67.8971V65.8948Z" stroke="#81D07A" stroke-width="5" stroke-linecap="round" stroke-linejoin="round"/>
<path d="M63.4775 76.4238C73.4138 76.4238 81.4687 68.3688 81.4687 58.4326C81.4687 48.4963 73.4138 40.4414 63.4775 40.4414C53.5413 40.4414 45.4863 48.4963 45.4863 58.4326C45.4863 68.3688 53.5413 76.4238 63.4775 76.4238Z" stroke="#81D07A" stroke-width="5"/>
<path d="M53.2383 59.1427L60.9532 66.3022L73.8217 53.2485" stroke="#81D07A" stroke-width="5" stroke-linecap="round" stroke-linejoin="round"/>
</svg>
