<svg width="112" height="112" viewBox="0 0 112 112" fill="none" xmlns="http://www.w3.org/2000/svg">
<g clip-path="url(#clip0)">
<path d="M60.4588 74.5756L25.5938 58.273V93.138L60.4588 109.441V74.5756Z" stroke="#6171F9" stroke-width="5" stroke-linecap="round" stroke-linejoin="round"/>
<path fill-rule="evenodd" clip-rule="evenodd" d="M86.4396 55.5352L60.4297 74.5722V109.437L86.4396 90.4003V55.5352Z" stroke="#6171F9" stroke-width="5" stroke-linecap="round" stroke-linejoin="round"/>
<path fill-rule="evenodd" clip-rule="evenodd" d="M74.0092 64.4825L62.223 73.677L26.0312 56.8616L37.8175 47.6671L74.0092 64.4825Z" stroke="#6171F9" stroke-width="5" stroke-linecap="round" stroke-linejoin="round"/>
<path fill-rule="evenodd" clip-rule="evenodd" d="M49.5753 38.5035L85.7979 55.3189L73.9808 64.4826L37.7891 47.6672L49.5753 38.5035Z" stroke="#6171F9" stroke-width="5" stroke-linecap="round" stroke-linejoin="round"/>
<path d="M53.627 97.8492L51.625 96.9131V98.9151L53.627 99.8512V97.8492Z" stroke="#6171F9" stroke-width="5" stroke-linecap="round" stroke-linejoin="round"/>
<path d="M76.5011 30.6372L73.6008 33.9386L70.7623 37.2708L67.9237 33.9386L65.0234 30.6372M70.7623 2.56009V37.2708V2.56009Z" stroke="#6171F9" stroke-width="5" stroke-linecap="round" stroke-linejoin="round"/>
</g>
<defs>
<clipPath id="clip0">
<rect width="112" height="112" fill="white"/>
</clipPath>
</defs>
</svg>
