<svg width="149" height="149" viewBox="0 0 149 149" fill="none" xmlns="http://www.w3.org/2000/svg">
<path d="M63.0246 86.8776L5.16553 59.8231V117.682L63.0246 144.737V86.8776Z" stroke="white" stroke-width="7" stroke-linecap="round" stroke-linejoin="round"/>
<path fill-rule="evenodd" clip-rule="evenodd" d="M106.169 55.2987L63.0049 86.8908V144.699L106.169 113.107V55.2987Z" stroke="white" stroke-width="7" stroke-linecap="round" stroke-linejoin="round"/>
<path fill-rule="evenodd" clip-rule="evenodd" d="M85.5133 70.1471L65.9539 85.3543L5.89307 57.5L25.4525 42.2416L85.5133 70.1471Z" stroke="white" stroke-width="7" stroke-linecap="round" stroke-linejoin="round"/>
<path fill-rule="evenodd" clip-rule="evenodd" d="M44.9506 27.0349L105.063 54.8892L85.4519 70.1476L25.3911 42.2421L44.9506 27.0349Z" stroke="white" stroke-width="7" stroke-linecap="round" stroke-linejoin="round"/>
<path d="M51.7037 125.5L48.3813 123.947V127.269L51.7037 128.822V125.5Z" stroke="white" stroke-width="7" stroke-linecap="round" stroke-linejoin="round"/>
<path d="M64.0234 23.9112L90.0344 4.2493" stroke="white" stroke-width="7" stroke-linecap="round" stroke-linejoin="round"/>
<path d="M96.5444 29.5439L122.607 9.88205" stroke="white" stroke-width="7" stroke-linecap="round" stroke-linejoin="round"/>
<path d="M117.789 63.5416L143.851 43.8797" stroke="white" stroke-width="7" stroke-linecap="round" stroke-linejoin="round"/>
<path d="M115.388 90.3207L141.45 70.6588" stroke="white" stroke-width="7" stroke-linecap="round" stroke-linejoin="round"/>
</svg>
