<svg width="327" height="543" viewBox="0 0 327 543" fill="none" xmlns="http://www.w3.org/2000/svg">
<g filter="url(#filter0_d)">
<path fill-rule="evenodd" clip-rule="evenodd" d="M323 28.5324L323 385.043L318.053 385.043C314.687 385.043 311.933 387.445 311.933 390.381C311.933 393.316 314.687 395.718 318.053 395.718L323 395.718L323 506.468C323 522.168 308.287 535 290.284 535L215.902 535C215.902 509.759 192.442 489.299 163.5 489.299C134.558 489.299 111.098 509.759 111.098 535L36.716 535C18.7133 535 4.00002 522.168 4.00002 506.468L4.00002 395.718L15.2453 395.718C18.6113 395.718 21.3653 393.316 21.3653 390.381C21.3653 387.445 18.6113 385.043 15.2453 385.043L4.00002 385.043L4 28.5325C4 12.8318 18.7133 1.33008e-05 36.716 1.25139e-05L111.098 9.26252e-06C111.098 25.2411 134.558 45.7008 163.5 45.7008C192.442 45.7008 215.902 25.2411 215.902 4.68142e-06L290.284 1.43006e-06C308.287 6.43137e-07 323 12.8318 323 28.5324ZM303.748 390.381C303.748 393.316 300.994 395.718 297.628 395.718L282.736 395.718C279.37 395.718 276.616 393.316 276.616 390.381C276.616 387.445 279.37 385.043 282.736 385.043L297.628 385.043C300.994 385.043 303.748 387.445 303.748 390.381ZM268.456 390.381C268.456 393.316 265.702 395.718 262.336 395.718L247.445 395.718C244.079 395.718 241.325 393.316 241.325 390.381C241.325 387.445 244.079 385.043 247.445 385.043L262.336 385.043C265.702 385.043 268.456 387.445 268.456 390.381ZM233.165 390.381C233.165 393.316 230.411 395.718 227.045 395.718L212.179 395.718C208.813 395.718 206.059 393.316 206.059 390.381C206.059 387.445 208.813 385.043 212.179 385.043L227.045 385.043C230.411 385.043 233.165 387.445 233.165 390.381ZM197.873 390.381C197.873 393.316 195.12 395.718 191.754 395.718L176.887 395.718C173.521 395.718 170.767 393.316 170.767 390.381C170.767 387.445 173.521 385.043 176.887 385.043L191.754 385.043C195.12 385.043 197.873 387.445 197.873 390.381ZM162.582 390.381C162.582 393.316 159.828 395.718 156.462 395.718L141.57 395.718C138.204 395.718 135.45 393.316 135.45 390.381C135.45 387.445 138.204 385.043 141.57 385.043L156.462 385.043C159.828 385.043 162.582 387.445 162.582 390.381ZM127.291 390.381C127.291 393.316 124.537 395.718 121.171 395.718L106.279 395.718C102.913 395.718 100.159 393.316 100.159 390.381C100.159 387.445 102.913 385.043 106.279 385.043L121.171 385.043C124.537 385.043 127.291 387.445 127.291 390.381ZM91.9991 390.381C91.9991 393.316 89.2452 395.718 85.8792 395.718L70.9875 395.718C67.6215 395.718 64.8676 393.316 64.8676 390.381C64.8676 387.445 67.6215 385.043 70.9875 385.043L85.8792 385.043C89.2452 385.043 91.9991 387.445 91.9991 390.381ZM56.7077 390.381C56.7077 393.316 53.9537 395.718 50.5878 395.718L35.7215 395.718C32.3556 395.718 29.6016 393.316 29.6016 390.381C29.6016 387.445 32.3556 385.043 35.7215 385.043L50.5878 385.043C53.9537 385.043 56.7077 387.445 56.7077 390.381Z" fill="#FFF7CF"/>
</g>
<defs>
<filter id="filter0_d" x="0" y="0" width="327" height="543" filterUnits="userSpaceOnUse" color-interpolation-filters="sRGB">
<feFlood flood-opacity="0" result="BackgroundImageFix"/>
<feColorMatrix in="SourceAlpha" type="matrix" values="0 0 0 0 0 0 0 0 0 0 0 0 0 0 0 0 0 0 127 0"/>
<feOffset dy="4"/>
<feGaussianBlur stdDeviation="2"/>
<feColorMatrix type="matrix" values="0 0 0 0 0 0 0 0 0 0 0 0 0 0 0 0 0 0 0.25 0"/>
<feBlend mode="normal" in2="BackgroundImageFix" result="effect1_dropShadow"/>
<feBlend mode="normal" in="SourceGraphic" in2="effect1_dropShadow" result="shape"/>
</filter>
</defs>
</svg>
