<svg width="69" height="104" viewBox="0 0 69 104" fill="none" xmlns="http://www.w3.org/2000/svg">
<path fill-rule="evenodd" clip-rule="evenodd" d="M69 15.3011L69 68.1855C69 69.1418 68.2386 69.9069 67.3821 69.9069L60.4345 69.9069C59.2924 69.9069 58.3407 70.8632 58.3407 72.0108L58.3407 74.7841C58.3407 75.9317 59.2924 76.888 60.4345 76.888L67.3821 76.888C68.3338 76.888 69 77.6531 69 78.6094L69 88.6507C69 97.0663 62.1476 103.952 53.7724 103.952L49.9655 103.952C49.109 103.952 48.3476 103.282 48.2524 102.422L48.2524 102.517C47.5862 95.5362 41.6855 90.0852 34.5476 90.0852C27.4097 90.0852 21.509 95.5362 20.8428 102.517L20.8428 102.422C20.7476 103.282 19.9862 103.952 19.1297 103.952L15.3228 103.952C6.94759 103.952 0.0951725 97.0663 0.0951728 88.6507L0.0951733 78.6094C0.0951733 77.6531 0.856556 76.888 1.71311 76.888L8.66069 76.888C9.80276 76.888 10.7545 75.9317 10.7545 74.7841L10.7545 72.0108C10.7545 70.8632 9.80276 69.9069 8.66069 69.9069L1.71311 69.9069C0.76138 69.9069 0.0951737 69.1418 0.0951737 68.1855L0.095176 15.3011C0.0951764 6.88549 6.94759 -2.7124e-06 15.3228 -2.34631e-06L19.1297 -2.1799e-06C19.9862 -2.14246e-06 20.7476 0.669421 20.8428 1.53011L20.8428 1.43448C21.509 8.4156 27.4097 13.8666 34.5476 13.8666C41.6855 13.8666 47.5862 8.4156 48.2524 1.43448L48.2524 1.53011C48.3476 0.669422 49.109 -8.69465e-07 49.9655 -8.32024e-07L53.7724 -6.65619e-07C62.1476 -2.99528e-07 69 6.88549 69 15.3011ZM51.6786 72.0108L51.6786 74.7841C51.6786 75.9317 50.7269 76.888 49.5848 76.888L39.9724 76.888C38.8303 76.888 37.8786 75.9317 37.8786 74.7841L37.8786 72.0108C37.8786 70.8632 38.8303 69.9069 39.9724 69.9069L49.5848 69.9069C50.7269 69.9069 51.6786 70.8632 51.6786 72.0108ZM31.2166 72.0108L31.2166 74.7841C31.2166 75.9317 30.2648 76.888 29.1228 76.888L19.5103 76.888C18.3683 76.888 17.4166 75.9317 17.4166 74.7841L17.4166 72.0108C17.4166 70.8632 18.3683 69.9069 19.5103 69.9069L29.1228 69.9069C30.2648 69.9069 31.2166 70.8632 31.2166 72.0108Z" fill="white"/>
</svg>
